<mxfile host="app.diagrams.net" agent="Mozilla/5.0 (Windows NT 10.0; Win64; x64) AppleWebKit/537.36 (KHTML, like Gecko) Chrome/137.0.0.0 Safari/537.36" version="27.2.0">
  <diagram name="Page-1" id="NhyPothc8yxsDEsXalK4">
    <mxGraphModel dx="1042" dy="574" grid="0" gridSize="10" guides="1" tooltips="1" connect="1" arrows="1" fold="1" page="1" pageScale="1" pageWidth="1100" pageHeight="850" background="none" math="0" shadow="0" adaptiveColors="none">
      <root>
        <mxCell id="0" />
        <mxCell id="1" parent="0" />
        <mxCell id="FojmKU9Cf3mvvTWfMZ7u-1" value="WEB" style="rounded=0;whiteSpace=wrap;html=1;labelBackgroundColor=none;" parent="1" vertex="1">
          <mxGeometry x="50" y="40" width="100" height="50" as="geometry" />
        </mxCell>
        <mxCell id="FojmKU9Cf3mvvTWfMZ7u-2" value="DEKSTOP" style="rounded=0;whiteSpace=wrap;html=1;labelBackgroundColor=none;" parent="1" vertex="1">
          <mxGeometry x="50" y="140" width="100" height="50" as="geometry" />
        </mxCell>
        <mxCell id="FojmKU9Cf3mvvTWfMZ7u-3" value="MOBILE" style="rounded=0;whiteSpace=wrap;html=1;labelBackgroundColor=none;" parent="1" vertex="1">
          <mxGeometry x="50" y="240" width="100" height="50" as="geometry" />
        </mxCell>
        <mxCell id="FojmKU9Cf3mvvTWfMZ7u-4" value="API Gateway" style="rounded=0;whiteSpace=wrap;html=1;labelBackgroundColor=none;" parent="1" vertex="1">
          <mxGeometry x="290" y="135" width="120" height="60" as="geometry" />
        </mxCell>
        <mxCell id="FojmKU9Cf3mvvTWfMZ7u-6" value="SIMPEG SERVICE" style="rounded=0;whiteSpace=wrap;html=1;labelBackgroundColor=none;" parent="1" vertex="1">
          <mxGeometry x="520" y="40" width="100" height="55" as="geometry" />
        </mxCell>
        <mxCell id="FojmKU9Cf3mvvTWfMZ7u-12" value="" style="endArrow=none;html=1;rounded=0;exitX=1;exitY=0.5;exitDx=0;exitDy=0;entryX=0;entryY=0.5;entryDx=0;entryDy=0;labelBackgroundColor=none;fontColor=default;" parent="1" source="FojmKU9Cf3mvvTWfMZ7u-1" target="FojmKU9Cf3mvvTWfMZ7u-4" edge="1">
          <mxGeometry width="50" height="50" relative="1" as="geometry">
            <mxPoint x="400" y="330" as="sourcePoint" />
            <mxPoint x="450" y="280" as="targetPoint" />
          </mxGeometry>
        </mxCell>
        <mxCell id="FojmKU9Cf3mvvTWfMZ7u-13" value="" style="endArrow=none;html=1;rounded=0;exitX=1;exitY=0.5;exitDx=0;exitDy=0;entryX=0;entryY=0.5;entryDx=0;entryDy=0;labelBackgroundColor=none;fontColor=default;" parent="1" source="FojmKU9Cf3mvvTWfMZ7u-2" target="FojmKU9Cf3mvvTWfMZ7u-4" edge="1">
          <mxGeometry width="50" height="50" relative="1" as="geometry">
            <mxPoint x="160" y="75" as="sourcePoint" />
            <mxPoint x="300" y="175" as="targetPoint" />
          </mxGeometry>
        </mxCell>
        <mxCell id="FojmKU9Cf3mvvTWfMZ7u-14" value="" style="endArrow=none;html=1;rounded=0;exitX=1;exitY=0.5;exitDx=0;exitDy=0;entryX=0;entryY=0.5;entryDx=0;entryDy=0;labelBackgroundColor=none;fontColor=default;" parent="1" source="FojmKU9Cf3mvvTWfMZ7u-3" target="FojmKU9Cf3mvvTWfMZ7u-4" edge="1">
          <mxGeometry width="50" height="50" relative="1" as="geometry">
            <mxPoint x="160" y="175" as="sourcePoint" />
            <mxPoint x="300" y="175" as="targetPoint" />
          </mxGeometry>
        </mxCell>
        <mxCell id="FojmKU9Cf3mvvTWfMZ7u-15" value="" style="endArrow=none;html=1;rounded=0;entryX=0;entryY=0.5;entryDx=0;entryDy=0;exitX=1;exitY=0.5;exitDx=0;exitDy=0;labelBackgroundColor=none;fontColor=default;" parent="1" source="FojmKU9Cf3mvvTWfMZ7u-4" target="FojmKU9Cf3mvvTWfMZ7u-6" edge="1">
          <mxGeometry width="50" height="50" relative="1" as="geometry">
            <mxPoint x="430" y="180" as="sourcePoint" />
            <mxPoint x="300" y="175" as="targetPoint" />
          </mxGeometry>
        </mxCell>
        <mxCell id="FojmKU9Cf3mvvTWfMZ7u-16" value="" style="endArrow=none;html=1;rounded=0;entryX=0;entryY=0.5;entryDx=0;entryDy=0;exitX=1;exitY=0.5;exitDx=0;exitDy=0;labelBackgroundColor=none;fontColor=default;" parent="1" source="FojmKU9Cf3mvvTWfMZ7u-4" target="FojmKU9Cf3mvvTWfMZ7u-19" edge="1">
          <mxGeometry width="50" height="50" relative="1" as="geometry">
            <mxPoint x="420" y="175" as="sourcePoint" />
            <mxPoint x="510" y="220" as="targetPoint" />
          </mxGeometry>
        </mxCell>
        <mxCell id="FojmKU9Cf3mvvTWfMZ7u-17" value="db_simpeg" style="strokeWidth=2;html=1;shape=mxgraph.flowchart.database;whiteSpace=wrap;rounded=0;labelBackgroundColor=none;" parent="1" vertex="1">
          <mxGeometry x="699" y="40" width="71" height="55" as="geometry" />
        </mxCell>
        <mxCell id="FojmKU9Cf3mvvTWfMZ7u-19" value="SIHAM&lt;div&gt;&amp;nbsp;SERVICE&lt;/div&gt;" style="rounded=0;whiteSpace=wrap;html=1;labelBackgroundColor=none;" parent="1" vertex="1">
          <mxGeometry x="520" y="240" width="100" height="55" as="geometry" />
        </mxCell>
        <mxCell id="FojmKU9Cf3mvvTWfMZ7u-20" value="db_siham" style="strokeWidth=2;html=1;shape=mxgraph.flowchart.database;whiteSpace=wrap;rounded=0;labelBackgroundColor=none;" parent="1" vertex="1">
          <mxGeometry x="700" y="240" width="70" height="55" as="geometry" />
        </mxCell>
        <mxCell id="FojmKU9Cf3mvvTWfMZ7u-22" value="" style="endArrow=none;html=1;rounded=0;entryX=0;entryY=0.5;entryDx=0;entryDy=0;exitX=1;exitY=0.5;exitDx=0;exitDy=0;entryPerimeter=0;labelBackgroundColor=none;fontColor=default;" parent="1" source="FojmKU9Cf3mvvTWfMZ7u-6" target="FojmKU9Cf3mvvTWfMZ7u-17" edge="1">
          <mxGeometry width="50" height="50" relative="1" as="geometry">
            <mxPoint x="420" y="175" as="sourcePoint" />
            <mxPoint x="520" y="118" as="targetPoint" />
          </mxGeometry>
        </mxCell>
        <mxCell id="FojmKU9Cf3mvvTWfMZ7u-23" value="" style="endArrow=none;html=1;rounded=0;entryX=0;entryY=0.5;entryDx=0;entryDy=0;exitX=1;exitY=0.5;exitDx=0;exitDy=0;entryPerimeter=0;labelBackgroundColor=none;fontColor=default;" parent="1" source="FojmKU9Cf3mvvTWfMZ7u-19" target="FojmKU9Cf3mvvTWfMZ7u-20" edge="1">
          <mxGeometry width="50" height="50" relative="1" as="geometry">
            <mxPoint x="620" y="118" as="sourcePoint" />
            <mxPoint x="709" y="118" as="targetPoint" />
          </mxGeometry>
        </mxCell>
        <mxCell id="UBH_qTqhZ-R5FcuiifZy-1" value="SIDATIN&lt;br&gt;&lt;div&gt;&amp;nbsp;SERVICE&lt;/div&gt;" style="rounded=0;whiteSpace=wrap;html=1;labelBackgroundColor=none;" vertex="1" parent="1">
          <mxGeometry x="520" y="137.5" width="100" height="55" as="geometry" />
        </mxCell>
        <mxCell id="UBH_qTqhZ-R5FcuiifZy-2" value="db_simdatin" style="strokeWidth=2;html=1;shape=mxgraph.flowchart.database;whiteSpace=wrap;rounded=0;labelBackgroundColor=none;" vertex="1" parent="1">
          <mxGeometry x="700" y="137.5" width="70" height="55" as="geometry" />
        </mxCell>
        <mxCell id="UBH_qTqhZ-R5FcuiifZy-4" value="" style="endArrow=none;html=1;rounded=0;entryX=0;entryY=0.5;entryDx=0;entryDy=0;exitX=1;exitY=0.5;exitDx=0;exitDy=0;entryPerimeter=0;labelBackgroundColor=none;fontColor=default;" edge="1" parent="1" source="UBH_qTqhZ-R5FcuiifZy-1" target="UBH_qTqhZ-R5FcuiifZy-2">
          <mxGeometry width="50" height="50" relative="1" as="geometry">
            <mxPoint x="630" y="78" as="sourcePoint" />
            <mxPoint x="709" y="78" as="targetPoint" />
          </mxGeometry>
        </mxCell>
        <mxCell id="UBH_qTqhZ-R5FcuiifZy-5" value="" style="endArrow=none;html=1;rounded=0;entryX=0;entryY=0.5;entryDx=0;entryDy=0;exitX=1;exitY=0.5;exitDx=0;exitDy=0;labelBackgroundColor=none;fontColor=default;" edge="1" parent="1" source="FojmKU9Cf3mvvTWfMZ7u-4" target="UBH_qTqhZ-R5FcuiifZy-1">
          <mxGeometry width="50" height="50" relative="1" as="geometry">
            <mxPoint x="430" y="162" as="sourcePoint" />
            <mxPoint x="510" y="162" as="targetPoint" />
          </mxGeometry>
        </mxCell>
      </root>
    </mxGraphModel>
  </diagram>
</mxfile>
